<svg id="eQk6yFH7LiJ1" xmlns="http://www.w3.org/2000/svg" xmlns:xlink="http://www.w3.org/1999/xlink" viewBox="0 0 820 692" shape-rendering="geometricPrecision" text-rendering="geometricPrecision"><g id="eQk6yFH7LiJ2" transform="matrix(0.1 0 0 -0.1 0 692)"><path id="eQk6yFH7LiJ3" d="M4000,6786C3947,6772,3922,6758,3595,6569C2603,5991,2291,5810,2260,5792C2241,5781,2122,5712,1995,5638C1869,5564,1664,5446,1542,5374C1419,5303,1302,5229,1283,5210C1264,5191,1234,5146,1216,5110L1185,5045L1182,3475C1181,2517,1183,1889,1189,1865C1219,1738,1247,1701,1360,1636C1401,1612,1550,1526,1690,1445C1830,1363,1987,1273,2037,1243C2137,1186,2223,1136,2510,970C2612,911,2826,788,2985,695C3363,476,3646,313,3690,288C3709,277,3767,243,3817,213C3955,132,3990,119,4068,118C4106,118,4155,121,4178,125C4228,133,4087,53,6280,1328C6530,1473,6765,1610,6801,1631C6884,1679,6952,1753,6982,1828L7005,1885L7004,3470C7004,4342,7001,5074,6998,5098C6991,5145,6957,5196,6907,5234C6889,5247,6758,5325,6615,5408C6472,5490,6099,5705,5785,5885C5184,6231,4948,6367,4502,6623C4352,6709,4210,6784,4187,6790C4131,6803,4055,6801,4000,6786ZM4225,5590C4751,5556,5227,5341,5600,4970C5721,4848,5880,4643,5938,4534C5949,4513,5933,4502,5599,4310C5406,4199,5248,4109,5246,4111C5245,4113,5223,4147,5198,4185C4994,4495,4661,4711,4298,4766C4172,4785,3942,4780,3830,4755C3567,4697,3348,4578,3164,4393C2986,4215,2865,4001,2810,3766C2652,3097,3033,2418,3686,2205C4168,2047,4701,2181,5052,2548C5094,2593,5155,2667,5186,2714C5217,2761,5247,2800,5251,2800C5256,2800,5321,2763,5397,2718C5473,2674,5560,2623,5590,2605C5760,2508,5940,2397,5940,2390C5940,2386,5917,2347,5889,2304C5560,1798,5024,1446,4440,1351C3848,1256,3234,1416,2766,1788C2598,1922,2402,2143,2276,2340C2122,2582,2005,2929,1970,3245C1922,3683,2029,4163,2264,4558C2427,4832,2695,5105,2970,5274C3265,5457,3603,5566,3945,5590C4006,5594,4057,5598,4060,5598C4063,5599,4137,5595,4225,5590ZM6330,4151C6330,4146,6317,4076,6300,3994C6284,3912,6270,3844,6270,3842C6270,3841,6316,3841,6372,3842L6474,3845L6505,4000L6536,4155L6668,4158L6801,4161L6795,4138C6782,4081,6740,3866,6740,3854C6740,3844,6755,3840,6795,3840L6850,3840L6850,3705L6850,3570L6766,3570L6682,3570L6660,3478C6649,3427,6637,3377,6634,3368C6629,3352,6639,3350,6739,3350L6850,3350L6850,3215L6850,3080L6716,3080L6583,3080L6561,2968C6548,2906,6534,2834,6528,2808L6518,2760L6383,2760C6260,2760,6249,2761,6254,2778C6263,2811,6310,3049,6310,3065C6310,3077,6294,3080,6211,3080L6113,3080L6091,2968C6078,2906,6064,2834,6058,2808L6048,2760L5919,2760C5848,2760,5790,2764,5790,2768C5790,2773,5804,2844,5820,2925C5837,3006,5850,3075,5850,3077C5850,3078,5821,3080,5785,3080L5720,3080L5720,3215L5720,3349L5813,3352L5905,3355L5922,3425C5931,3464,5942,3512,5945,3533L5952,3570L5836,3570L5720,3570L5720,3705L5720,3839L5862,3842L6004,3845L6036,4000C6054,4085,6068,4156,6069,4158C6072,4165,6330,4159,6330,4151Z" fill="rgb(98,32,116)" stroke="none" stroke-width="1"/><path id="eQk6yFH7LiJ4" d="M6215,3558C6208,3539,6170,3371,6170,3360C6170,3354,6213,3350,6270,3350C6365,3350,6370,3351,6375,3373C6378,3385,6387,3427,6395,3465C6404,3504,6413,3543,6416,3553C6421,3568,6412,3570,6320,3570C6249,3570,6218,3566,6215,3558Z" fill="rgb(98,32,116)" stroke="none" stroke-width="1"/></g></svg>