<svg id="emAuE7sKfe31" xmlns="http://www.w3.org/2000/svg" xmlns:xlink="http://www.w3.org/1999/xlink" viewBox="0 0 512 512" shape-rendering="geometricPrecision" text-rendering="geometricPrecision"><g id="emAuE7sKfe32"><g id="emAuE7sKfe33"><g id="emAuE7sKfe34"><path id="emAuE7sKfe35" d="M10,232L502,232L502,462L10,462Z" transform="matrix(1 0 0 1 0 -91)" fill="rgb(110,131,183)" stroke="none" stroke-width="1"/></g><g id="emAuE7sKfe36"><path id="emAuE7sKfe37" d="M218,316L248,316L248,538L218,538Z" transform="matrix(0 1 -1 0 660 103)" fill="rgb(255,176,170)" stroke="none" stroke-width="1"/></g><g id="emAuE7sKfe38"><path id="emAuE7sKfe39" d="M30,412L66,412L66,442L30,442Z" transform="matrix(1 0 0 1 0 -91)" fill="rgb(70,96,137)" stroke="none" stroke-width="1"/></g><g id="emAuE7sKfe310"><path id="emAuE7sKfe311" d="M76,412L112,412L112,442L76,442Z" transform="matrix(1 0 0 1 0 -91)" fill="rgb(70,96,137)" stroke="none" stroke-width="1"/></g><g id="emAuE7sKfe312"><path id="emAuE7sKfe313" d="M104,372L140,372L140,402L104,402Z" transform="matrix(1 0 0 1 0 -91)" fill="rgb(70,96,137)" stroke="none" stroke-width="1"/></g><g id="emAuE7sKfe314"><path id="emAuE7sKfe315" d="M30,372L94,372L94,402L30,402Z" transform="matrix(1 0 0 1 0 -91)" fill="rgb(70,96,137)" stroke="none" stroke-width="1"/></g><g id="emAuE7sKfe316"><path id="emAuE7sKfe317" d="M334,372L390,372L390,402L334,402Z" transform="matrix(1 0 0 1 0 -91)" fill="rgb(70,96,137)" stroke="none" stroke-width="1"/></g><g id="emAuE7sKfe318"><path id="emAuE7sKfe319" d="M30,332L80,332L80,362L30,362Z" transform="matrix(1 0 0 1 0 -91)" fill="rgb(70,96,137)" stroke="none" stroke-width="1"/></g><g id="emAuE7sKfe320"><path id="emAuE7sKfe321" d="M446,412L482,412L482,442L446,442Z" transform="matrix(1 0 0 1 0 -91)" fill="rgb(255,227,82)" stroke="none" stroke-width="1"/></g><g id="emAuE7sKfe322"><path id="emAuE7sKfe323" d="M446,372L482,372L482,402L446,402Z" transform="matrix(1 0 0 1 0 -91)" fill="rgb(70,96,137)" stroke="none" stroke-width="1"/></g><g id="emAuE7sKfe324"><path id="emAuE7sKfe325" d="M446,332L482,332L482,362L446,362Z" transform="matrix(1 0 0 1 0 -91)" fill="rgb(70,96,137)" stroke="none" stroke-width="1"/></g><g id="emAuE7sKfe326"><path id="emAuE7sKfe327" d="M446,292L482,292L482,322L446,322Z" transform="matrix(1 0 0 1 0 -91)" fill="rgb(70,96,137)" stroke="none" stroke-width="1"/></g><g id="emAuE7sKfe328"><path id="emAuE7sKfe329" d="M400,412L436,412L436,442L400,442Z" transform="matrix(1 0 0 1 0 -91)" fill="rgb(255,227,82)" stroke="none" stroke-width="1"/></g><g id="emAuE7sKfe330"><path id="emAuE7sKfe331" d="M400,372L436,372L436,402L400,402Z" transform="matrix(1 0 0 1 0 -91)" fill="rgb(255,227,82)" stroke="none" stroke-width="1"/></g><g id="emAuE7sKfe332"><path id="emAuE7sKfe333" d="M354,412L390,412L390,442L354,442Z" transform="matrix(1 0 0 1 0 -91)" fill="rgb(255,227,82)" stroke="none" stroke-width="1"/></g><g id="emAuE7sKfe334"><path id="emAuE7sKfe335" d="M93,329L123,329L123,365L93,365Z" transform="matrix(0 1 -1 0 455 148)" fill="rgb(255,176,170)" stroke="none" stroke-width="1"/></g><g id="emAuE7sKfe336"><path id="emAuE7sKfe337" d="M30,292L66,292L66,322L30,322Z" transform="matrix(1 0 0 1 0 -91)" fill="rgb(70,96,137)" stroke="none" stroke-width="1"/></g><g id="emAuE7sKfe338"><path id="emAuE7sKfe339" d="M30,252L60,252L60,282L30,282Z" transform="matrix(1 0 0 1 0 -91)" fill="rgb(70,96,137)" stroke="none" stroke-width="1"/></g><g id="emAuE7sKfe340"><path id="emAuE7sKfe341" d="M70,252L100,252L100,282L70,282Z" transform="matrix(1 0 0 1 0 -91)" fill="rgb(70,96,137)" stroke="none" stroke-width="1"/></g><g id="emAuE7sKfe342"><path id="emAuE7sKfe343" d="M110,252L140,252L140,282L110,282Z" transform="matrix(1 0 0 1 0 -91)" fill="rgb(70,96,137)" stroke="none" stroke-width="1"/></g><g id="emAuE7sKfe344"><path id="emAuE7sKfe345" d="M150,252L180,252L180,282L150,282Z" transform="matrix(1 0 0 1 0 -91)" fill="rgb(70,96,137)" stroke="none" stroke-width="1"/></g><g id="emAuE7sKfe346"><path id="emAuE7sKfe347" d="M190,252L220,252L220,282L190,282Z" transform="matrix(1 0 0 1 0 -91)" fill="rgb(70,96,137)" stroke="none" stroke-width="1"/></g><g id="emAuE7sKfe348"><path id="emAuE7sKfe349" d="M230,252L260,252L260,282L230,282Z" transform="matrix(1 0 0 1 0 -91)" fill="rgb(70,96,137)" stroke="none" stroke-width="1"/></g><g id="emAuE7sKfe350"><path id="emAuE7sKfe351" d="M270,252L300,252L300,282L270,282Z" transform="matrix(1 0 0 1 0 -91)" fill="rgb(70,96,137)" stroke="none" stroke-width="1"/></g><g id="emAuE7sKfe352"><path id="emAuE7sKfe353" d="M310,252L340,252L340,282L310,282Z" transform="matrix(1 0 0 1 0 -91)" fill="rgb(70,96,137)" stroke="none" stroke-width="1"/></g><g id="emAuE7sKfe354"><path id="emAuE7sKfe355" d="M350,252L380,252L380,282L350,282Z" transform="matrix(1 0 0 1 0 -91)" fill="rgb(70,96,137)" stroke="none" stroke-width="1"/></g><g id="emAuE7sKfe356"><path id="emAuE7sKfe357" d="M390,252L420,252L420,282L390,282Z" transform="matrix(1 0 0 1 0 -91)" fill="rgb(70,96,137)" stroke="none" stroke-width="1"/></g><g id="emAuE7sKfe358"><path id="emAuE7sKfe359" d="M430,252L482,252L482,282L430,282Z" transform="matrix(1 0 0 1 0 -91)" fill="rgb(70,96,137)" stroke="none" stroke-width="1"/></g><g id="emAuE7sKfe360"><path id="emAuE7sKfe361" d="M139,329L169,329L169,365L139,365Z" transform="matrix(0 1 -1 0 501 102)" fill="rgb(255,176,170)" stroke="none" stroke-width="1"/></g><g id="emAuE7sKfe362"><path id="emAuE7sKfe363" d="M185,329L215,329L215,365L185,365Z" transform="matrix(0 1 -1 0 547 56)" fill="rgb(255,176,170)" stroke="none" stroke-width="1"/></g><g id="emAuE7sKfe364"><path id="emAuE7sKfe365" d="M228,332L264,332L264,362L228,362Z" transform="matrix(1 0 0 1 0 -91)" fill="rgb(70,96,137)" stroke="none" stroke-width="1"/></g><g id="emAuE7sKfe366"><path id="emAuE7sKfe367" d="M274,332L310,332L310,362L274,362Z" transform="matrix(1 0 0 1 0 -91)" fill="rgb(70,96,137)" stroke="none" stroke-width="1"/></g><g id="emAuE7sKfe368"><path id="emAuE7sKfe369" d="M320,332L356,332L356,362L320,362Z" transform="matrix(1 0 0 1 0 -91)" fill="rgb(70,96,137)" stroke="none" stroke-width="1"/></g><g id="emAuE7sKfe370"><path id="emAuE7sKfe371" d="M76,292L112,292L112,322L76,322Z" transform="matrix(1 0 0 1 0 -91)" fill="rgb(70,96,137)" stroke="none" stroke-width="1"/></g><g id="emAuE7sKfe372"><path id="emAuE7sKfe373" d="M125,289L155,289L155,325L125,325Z" transform="matrix(0 1 -1 0 447 76)" fill="rgb(255,176,170)" stroke="none" stroke-width="1"/></g><g id="emAuE7sKfe374"><path id="emAuE7sKfe375" d="M168,292L204,292L204,322L168,322Z" transform="matrix(1 0 0 1 0 -91)" fill="rgb(70,96,137)" stroke="none" stroke-width="1"/></g><g id="emAuE7sKfe376"><path id="emAuE7sKfe377" d="M214,292L250,292L250,322L214,322Z" transform="matrix(1 0 0 1 0 -91)" fill="rgb(70,96,137)" stroke="none" stroke-width="1"/></g><g id="emAuE7sKfe378"><path id="emAuE7sKfe379" d="M260,292L296,292L296,322L260,322Z" transform="matrix(1 0 0 1 0 -91)" fill="rgb(70,96,137)" stroke="none" stroke-width="1"/></g><g id="emAuE7sKfe380"><path id="emAuE7sKfe381" d="M306,292L342,292L342,322L306,322Z" transform="matrix(1 0 0 1 0 -91)" fill="rgb(70,96,137)" stroke="none" stroke-width="1"/></g><g id="emAuE7sKfe382"><path id="emAuE7sKfe383" d="M352,292L388,292L388,322L352,322Z" transform="matrix(1 0 0 1 0 -91)" fill="rgb(70,96,137)" stroke="none" stroke-width="1"/></g><g id="emAuE7sKfe384"><path id="emAuE7sKfe385" d="M398,292L398,332L367,332L367,362L436,362L436,292Z" transform="matrix(1 0 0 1 0 -91)" fill="rgb(152,202,105)" stroke="none" stroke-width="1"/></g><g id="emAuE7sKfe386"><path id="emAuE7sKfe387" d="M150,372L186,372L186,402L150,402Z" transform="matrix(1 0 0 1 0 -91)" fill="rgb(70,96,137)" stroke="none" stroke-width="1"/></g><g id="emAuE7sKfe388"><path id="emAuE7sKfe389" d="M196,372L232,372L232,402L196,402Z" transform="matrix(1 0 0 1 0 -91)" fill="rgb(70,96,137)" stroke="none" stroke-width="1"/></g><g id="emAuE7sKfe390"><path id="emAuE7sKfe391" d="M242,372L278,372L278,402L242,402Z" transform="matrix(1 0 0 1 0 -91)" fill="rgb(70,96,137)" stroke="none" stroke-width="1"/></g><g id="emAuE7sKfe392"><path id="emAuE7sKfe393" d="M288,372L324,372L324,402L288,402Z" transform="matrix(1 0 0 1 0 -91)" fill="rgb(70,96,137)" stroke="none" stroke-width="1"/></g></g></g></svg>